<svg width="32" height="30" viewBox="0 0 32 30" fill="none" xmlns="http://www.w3.org/2000/svg">
<path d="M24.3837 1.2251H1.35416V18.713C1.35416 20.1828 1.93801 21.5923 2.97727 22.6316C4.01654 23.6708 5.42608 24.2547 6.89582 24.2547H18.8421C20.3118 24.2547 21.7214 23.6708 22.7606 22.6316C23.7999 21.5923 24.3837 20.1828 24.3837 18.713V1.2251ZM24.3837 1.2251H29.0625C29.4824 1.2251 29.8851 1.39191 30.1821 1.68885C30.479 1.98578 30.6458 2.38851 30.6458 2.80843V7.32093C30.6458 7.74086 30.479 8.14358 30.1821 8.44052C29.8851 8.73745 29.4824 8.90426 29.0625 8.90426H24.3837V1.2251ZM1.35416 28.7751H24.3837" stroke="white" stroke-linecap="round" stroke-linejoin="round"/>
</svg>
