<svg width="35" height="35" viewBox="0 0 35 35" fill="none" xmlns="http://www.w3.org/2000/svg">
<path d="M20.3364 18.9584C19.9739 18.9676 19.6287 19.1158 19.3722 19.3723C19.1157 19.6288 18.9676 19.9739 18.9583 20.3365V29.5678C18.9525 29.7572 18.9847 29.9459 19.0532 30.1226C19.1216 30.2993 19.2249 30.4604 19.3569 30.5965C19.4888 30.7325 19.6467 30.8406 19.8213 30.9144C19.9958 30.9882 20.1834 31.0262 20.3729 31.0261H29.5677C29.9545 31.0261 30.3254 30.8725 30.5989 30.599C30.8724 30.3255 31.026 29.9546 31.026 29.5678V20.3365C31.0261 20.147 30.9881 19.9594 30.9143 19.7849C30.8405 19.6104 30.7324 19.4524 30.5964 19.3205C30.4603 19.1885 30.2992 19.0853 30.1225 19.0168C29.9458 18.9484 29.7571 18.9161 29.5677 18.922L20.3364 18.9584ZM5.43228 4.0105C5.05186 4.02001 4.69023 4.17785 4.42457 4.45031C4.15892 4.72278 4.01029 5.08829 4.01041 5.46883V14.6636C4.01032 14.8531 4.0483 15.0407 4.12211 15.2153C4.19592 15.3898 4.30405 15.5477 4.44008 15.6797C4.5761 15.8116 4.73725 15.9149 4.91396 15.9833C5.09066 16.0518 5.27933 16.0841 5.46874 16.0782H14.6635C15.0387 16.0782 15.3985 15.9292 15.6638 15.6639C15.9291 15.3986 16.0781 15.0388 16.0781 14.6636V5.43237C16.0791 5.24599 16.0432 5.06126 15.9725 4.8888C15.9019 4.71633 15.7978 4.55952 15.6664 4.42739C15.5349 4.29527 15.3787 4.19042 15.2066 4.11887C15.0345 4.04733 14.8499 4.0105 14.6635 4.0105H5.43228Z" stroke="white" stroke-linecap="round" stroke-linejoin="round"/>
<path d="M28.8604 4.0105H21.051C19.8751 4.0105 18.9219 4.96376 18.9219 6.13966V13.949C18.9219 15.1249 19.8751 16.0782 21.051 16.0782H28.8604C30.0363 16.0782 30.9896 15.1249 30.9896 13.949V6.13966C30.9896 4.96376 30.0363 4.0105 28.8604 4.0105Z" stroke="white" stroke-linecap="round" stroke-linejoin="round"/>
<path d="M14.6562 18.9219H5.43228C4.647 18.9219 4.01041 19.5585 4.01041 20.3437V29.5677C4.01041 30.353 4.647 30.9896 5.43228 30.9896H14.6562C15.4415 30.9896 16.0781 30.353 16.0781 29.5677V20.3437C16.0781 19.5585 15.4415 18.9219 14.6562 18.9219Z" stroke="white" stroke-linecap="round" stroke-linejoin="round"/>
<path d="M10.0479 6.13965V13.949M6.13959 10.048H13.949M21.051 22.823H28.8604M21.051 27.0813H28.8604" stroke="white" stroke-linecap="round" stroke-linejoin="round"/>
</svg>
