<svg width="30" height="30" viewBox="0 0 30 30" fill="none" xmlns="http://www.w3.org/2000/svg">
<path d="M14.9942 29C17.7678 29 19.0202 27.8724 21.0639 26.7297C22.685 25.8292 25.0591 25.6778 26.0349 24.6714C26.9375 23.7386 27.6311 22.6294 28.0705 21.4157C28.51 20.202 28.6855 18.9108 28.5857 17.6259C28.5857 16.1503 27.8558 13.9708 27.8558 13.3881C27.8558 12.8054 30.7754 1 27.2872 1C24.7595 1 19.2276 7.1827 19.2276 7.1827C17.9563 6.38843 16.4978 5.93216 14.9942 5.85838C13.4853 5.92957 12.0212 6.38594 10.7454 7.1827C10.7454 7.1827 5.21358 1 2.70119 1C-0.771586 1 2.14801 12.8205 2.14801 13.4032C2.14801 13.9859 1.37969 16.1654 1.37969 17.6411C1.28292 18.9276 1.46207 20.2197 1.90551 21.4335C2.34895 22.6474 3.04674 23.7557 3.95354 24.6865C4.9293 25.693 7.30339 25.8443 8.92453 26.7449C10.9682 27.8649 12.2206 29 14.9942 29Z" stroke="white" stroke-linecap="round" stroke-linejoin="round"/>
</svg>
