<svg width="35" height="35" viewBox="0 0 35 35" fill="none" xmlns="http://www.w3.org/2000/svg">
<path d="M21.9312 10.936L18.1803 28.1108L14.4295 10.936L10.6779 28.1108L6.92709 10.936M27.3306 12.7896V6.88916L24.1639 10.8522H28.0729" stroke="white" stroke-linecap="round" stroke-linejoin="round"/>
<path d="M5.46874 4.0105C5.08197 4.0105 4.71103 4.16414 4.43754 4.43763C4.16405 4.71112 4.01041 5.08206 4.01041 5.46883V29.5313C4.01041 29.9181 4.16405 30.289 4.43754 30.5625C4.71103 30.836 5.08197 30.9897 5.46874 30.9897H29.5312C29.918 30.9897 30.2889 30.836 30.5624 30.5625C30.8359 30.289 30.9896 29.9181 30.9896 29.5313V5.46883C30.9896 5.08206 30.8359 4.71112 30.5624 4.43763C30.2889 4.16414 29.918 4.0105 29.5312 4.0105H5.46874Z" stroke="white" stroke-linecap="round" stroke-linejoin="round"/>
</svg>
